<svg width="27" height="27" viewBox="0 0 27 27" fill="none" xmlns="http://www.w3.org/2000/svg">
<path fill-rule="evenodd" clip-rule="evenodd" d="M12.0003 0.666626C10.1931 0.66678 8.41216 1.09911 6.80601 1.92755C5.19987 2.75599 3.81513 3.95652 2.76732 5.42896C1.71951 6.90141 1.03902 8.60309 0.782616 10.392C0.526214 12.1809 0.701337 14.0053 1.29338 15.7127C1.88541 17.4202 2.8772 18.9614 4.18599 20.2076C5.49477 21.4538 7.08261 22.369 8.81702 22.8768C10.5514 23.3845 12.3821 23.4702 14.1564 23.1265C15.9306 22.7829 17.5969 22.0199 19.0163 20.9013L23.8857 25.7706C24.1371 26.0135 24.4739 26.1479 24.8235 26.1449C25.1731 26.1418 25.5076 26.0016 25.7548 25.7544C26.002 25.5072 26.1422 25.1728 26.1452 24.8232C26.1483 24.4736 26.0139 24.1368 25.771 23.8853L20.9017 19.016C22.219 17.3448 23.0392 15.3365 23.2685 13.2209C23.4977 11.1054 23.1267 8.96799 22.198 7.05342C21.2692 5.13885 19.8202 3.52443 18.0167 2.39493C16.2133 1.26543 14.1283 0.666483 12.0003 0.666626ZM3.33367 12C3.33367 9.70142 4.24676 7.49701 5.87208 5.8717C7.49739 4.24638 9.70179 3.33329 12.0003 3.33329C14.2989 3.33329 16.5033 4.24638 18.1286 5.8717C19.7539 7.49701 20.667 9.70142 20.667 12C20.667 14.2985 19.7539 16.5029 18.1286 18.1282C16.5033 19.7535 14.2989 20.6666 12.0003 20.6666C9.70179 20.6666 7.49739 19.7535 5.87208 18.1282C4.24676 16.5029 3.33367 14.2985 3.33367 12Z" fill="white"/>
</svg>
