<svg width="33" height="28" viewBox="0 0 33 28" fill="none" xmlns="http://www.w3.org/2000/svg">
<g clip-path="url(#clip0_62_503)">
<mask id="mask0_62_503" style="mask-type:alpha" maskUnits="userSpaceOnUse" x="0" y="0" width="33" height="28">
<path d="M29.8571 0H3.14286C1.4071 0 0 1.67147 0 3.73333V24.2667C0 26.3285 1.4071 28 3.14286 28H29.8571C31.5929 28 33 26.3285 33 24.2667V3.73333C33 1.67147 31.5929 0 29.8571 0Z" fill="white"/>
</mask>
<g mask="url(#mask0_62_503)">
<path d="M29.8571 0H3.14286C1.4071 0 0 1.67147 0 3.73333V24.2667C0 26.3285 1.4071 28 3.14286 28H29.8571C31.5929 28 33 26.3285 33 24.2667V3.73333C33 1.67147 31.5929 0 29.8571 0Z" fill="#FFE100"/>
<path fill-rule="evenodd" clip-rule="evenodd" d="M0 0H11V28H0V0Z" fill="#0006AB"/>
<path fill-rule="evenodd" clip-rule="evenodd" d="M22 0H33V28H22V0Z" fill="#D20636"/>
<path fill-rule="evenodd" clip-rule="evenodd" d="M18.7564 18.5455C19.7213 18.1964 20.4284 17.1305 20.4284 15.8668V10.2668C20.4284 8.70813 19.3724 7.4668 18.0713 7.4668H14.9284C13.6304 7.4668 12.5713 8.71746 12.5713 10.2668V15.8668C12.5713 17.1399 13.2753 18.2001 14.2433 18.5473C14.5356 19.7047 15.4344 20.5335 16.4999 20.5335C17.5716 20.5335 18.4641 19.6935 18.7564 18.5455Z" fill="#C8B47C"/>
<path fill-rule="evenodd" clip-rule="evenodd" d="M14.1431 9.3335H15.7145V12.1335H14.1431V9.3335ZM17.2859 13.0668H18.8574V15.8668H17.2859V13.0668Z" fill="#D20636"/>
<path fill-rule="evenodd" clip-rule="evenodd" d="M17.2859 9.3335H18.8574V12.1335H17.2859V9.3335ZM14.1431 13.0668H15.7145V15.8668H14.1431V13.0668Z" fill="#FFE100"/>
<path d="M29.8571 0.933105H3.14279C1.84097 0.933105 0.785645 2.18671 0.785645 3.73311V24.2664C0.785645 25.8128 1.84097 27.0664 3.14279 27.0664H29.8571C31.1589 27.0664 32.2142 25.8128 32.2142 24.2664V3.73311C32.2142 2.18671 31.1589 0.933105 29.8571 0.933105Z" stroke="black" stroke-opacity="0.1"/>
</g>
</g>
<defs>
<clipPath id="clip0_62_503">
<rect width="33" height="28" fill="white"/>
</clipPath>
</defs>
</svg>
