<svg width="33" height="28" viewBox="0 0 33 28" fill="none" xmlns="http://www.w3.org/2000/svg">
<g clip-path="url(#clip0_62_521)">
<mask id="mask0_62_521" style="mask-type:alpha" maskUnits="userSpaceOnUse" x="0" y="0" width="33" height="28">
<path d="M29.8571 0H3.14286C1.4071 0 0 1.67147 0 3.73333V24.2667C0 26.3285 1.4071 28 3.14286 28H29.8571C31.5929 28 33 26.3285 33 24.2667V3.73333C33 1.67147 31.5929 0 29.8571 0Z" fill="white"/>
</mask>
<g mask="url(#mask0_62_521)">
<path d="M29.8571 0H3.14286C1.4071 0 0 1.67147 0 3.73333V24.2667C0 26.3285 1.4071 28 3.14286 28H29.8571C31.5929 28 33 26.3285 33 24.2667V3.73333C33 1.67147 31.5929 0 29.8571 0Z" fill="#C10000"/>
<path fill-rule="evenodd" clip-rule="evenodd" d="M0 0H11V28H0V0Z" fill="black"/>
<path fill-rule="evenodd" clip-rule="evenodd" d="M22 0H33V28H22V0Z" fill="#009B00"/>
<path fill-rule="evenodd" clip-rule="evenodd" d="M16.4999 18.6668C18.6684 18.6668 20.4284 16.5762 20.4284 14.0002C20.4284 11.4242 18.6684 9.3335 16.4999 9.3335C14.3313 9.3335 12.5713 11.4242 12.5713 14.0002C12.5713 16.5762 14.3313 18.6668 16.4999 18.6668ZM16.4999 16.8002C17.801 16.8002 18.857 15.1295 18.857 13.0668C18.857 11.0042 17.801 9.3335 16.4999 9.3335C15.1987 9.3335 14.1427 11.0042 14.1427 13.0668C14.1427 15.1295 15.1987 16.8002 16.4999 16.8002ZM16.4999 14.9335C16.9336 14.9335 17.2856 14.0972 17.2856 13.0668C17.2856 12.0364 16.9336 11.2002 16.4999 11.2002C16.0661 11.2002 15.7141 12.0364 15.7141 13.0668C15.7141 14.0972 16.0661 14.9335 16.4999 14.9335Z" fill="white"/>
<path d="M29.8571 0.933105H3.14279C1.84097 0.933105 0.785645 2.18671 0.785645 3.73311V24.2664C0.785645 25.8128 1.84097 27.0664 3.14279 27.0664H29.8571C31.1589 27.0664 32.2142 25.8128 32.2142 24.2664V3.73311C32.2142 2.18671 31.1589 0.933105 29.8571 0.933105Z" stroke="black" stroke-opacity="0.1"/>
</g>
</g>
<defs>
<clipPath id="clip0_62_521">
<rect width="33" height="28" fill="white"/>
</clipPath>
</defs>
</svg>
