<svg width="33" height="28" viewBox="0 0 33 28" fill="none" xmlns="http://www.w3.org/2000/svg">
<g clip-path="url(#clip0_62_529)">
<mask id="mask0_62_529" style="mask-type:alpha" maskUnits="userSpaceOnUse" x="0" y="0" width="33" height="28">
<path d="M29.8571 0H3.14286C1.4071 0 0 1.67147 0 3.73333V24.2667C0 26.3285 1.4071 28 3.14286 28H29.8571C31.5929 28 33 26.3285 33 24.2667V3.73333C33 1.67147 31.5929 0 29.8571 0Z" fill="white"/>
</mask>
<g mask="url(#mask0_62_529)">
<path d="M29.8571 0H3.14286C1.4071 0 0 1.67147 0 3.73333V24.2667C0 26.3285 1.4071 28 3.14286 28H29.8571C31.5929 28 33 26.3285 33 24.2667V3.73333C33 1.67147 31.5929 0 29.8571 0Z" fill="black"/>
<path d="M16.5 16.8001C19.5376 16.8001 22 13.875 22 10.2667C22 6.65847 19.5376 3.7334 16.5 3.7334C13.4624 3.7334 11 6.65847 11 10.2667C11 13.875 13.4624 16.8001 16.5 16.8001Z" fill="#FDD200"/>
<path fill-rule="evenodd" clip-rule="evenodd" d="M0 16.7998H33V27.9998H0V16.7998Z" fill="white"/>
<path fill-rule="evenodd" clip-rule="evenodd" d="M0 11.2002H33V16.8002H0V11.2002Z" fill="#0070C9"/>
<path fill-rule="evenodd" clip-rule="evenodd" d="M17.2857 28H0V0L17.2857 28Z" fill="#D0091E"/>
<path fill-rule="evenodd" clip-rule="evenodd" d="M15.7144 28H33.0001V0L15.7144 28Z" fill="#D0091E"/>
<path d="M29.8571 0.933105H3.14279C1.84097 0.933105 0.785645 2.18671 0.785645 3.73311V24.2664C0.785645 25.8128 1.84097 27.0664 3.14279 27.0664H29.8571C31.1589 27.0664 32.2142 25.8128 32.2142 24.2664V3.73311C32.2142 2.18671 31.1589 0.933105 29.8571 0.933105Z" stroke="black" stroke-opacity="0.1"/>
</g>
</g>
<defs>
<clipPath id="clip0_62_529">
<rect width="33" height="28" fill="white"/>
</clipPath>
</defs>
</svg>
