<svg width="33" height="28" viewBox="0 0 33 28" fill="none" xmlns="http://www.w3.org/2000/svg">
<g clip-path="url(#clip0_62_552)">
<mask id="mask0_62_552" style="mask-type:alpha" maskUnits="userSpaceOnUse" x="0" y="0" width="33" height="28">
<path d="M29.8571 0H3.14286C1.4071 0 0 1.67147 0 3.73333V24.2667C0 26.3285 1.4071 28 3.14286 28H29.8571C31.5929 28 33 26.3285 33 24.2667V3.73333C33 1.67147 31.5929 0 29.8571 0Z" fill="white"/>
</mask>
<g mask="url(#mask0_62_552)">
<path d="M29.8571 0H3.14286C1.4071 0 0 1.67147 0 3.73333V24.2667C0 26.3285 1.4071 28 3.14286 28H29.8571C31.5929 28 33 26.3285 33 24.2667V3.73333C33 1.67147 31.5929 0 29.8571 0Z" fill="white"/>
<path d="M20.4284 0H12.5713V28H20.4284V0Z" fill="#DC171D"/>
<path d="M33 9.3335H0V18.6668H33V9.3335Z" fill="#012A87"/>
<path d="M12.5714 13.0669H11V14.9336H12.5714V13.0669Z" fill="white"/>
<path d="M15.7145 14.9331H14.1431V16.7998H15.7145V14.9331Z" fill="white"/>
<path d="M18.8571 14.9331H17.2856V16.7998H18.8571V14.9331Z" fill="white"/>
<path d="M22.0001 13.0669H20.4287V14.9336H22.0001V13.0669Z" fill="white"/>
<path d="M17.2858 11.2002H15.7144V13.0669H17.2858V11.2002Z" fill="white"/>
<path d="M29.8571 0.933105H3.14279C1.84097 0.933105 0.785645 2.18671 0.785645 3.73311V24.2664C0.785645 25.8128 1.84097 27.0664 3.14279 27.0664H29.8571C31.1589 27.0664 32.2142 25.8128 32.2142 24.2664V3.73311C32.2142 2.18671 31.1589 0.933105 29.8571 0.933105Z" stroke="black" stroke-opacity="0.1"/>
</g>
</g>
<defs>
<clipPath id="clip0_62_552">
<rect width="33" height="28" fill="white"/>
</clipPath>
</defs>
</svg>
