<svg width="33" height="28" viewBox="0 0 33 28" fill="none" xmlns="http://www.w3.org/2000/svg">
<g clip-path="url(#clip0_62_564)">
<mask id="mask0_62_564" style="mask-type:alpha" maskUnits="userSpaceOnUse" x="0" y="0" width="33" height="28">
<path d="M29.8571 0H3.14286C1.4071 0 0 1.67147 0 3.73333V24.2667C0 26.3285 1.4071 28 3.14286 28H29.8571C31.5929 28 33 26.3285 33 24.2667V3.73333C33 1.67147 31.5929 0 29.8571 0Z" fill="white"/>
</mask>
<g mask="url(#mask0_62_564)">
<path d="M29.8571 0H3.14286C1.4071 0 0 1.67147 0 3.73333V24.2667C0 26.3285 1.4071 28 3.14286 28H29.8571C31.5929 28 33 26.3285 33 24.2667V3.73333C33 1.67147 31.5929 0 29.8571 0Z" fill="#D0091E"/>
<path fill-rule="evenodd" clip-rule="evenodd" d="M0 14.9331H33V27.9998H0V14.9331Z" fill="black"/>
<path fill-rule="evenodd" clip-rule="evenodd" d="M20.916 17.8937C21.598 16.8073 22.0002 15.4595 22.0002 13.9998C22.0002 11.2614 20.5812 8.91687 18.5698 7.94434L17.6191 9.5254C19.244 10.0985 20.4288 11.8849 20.4288 13.9998C20.4288 15.1086 20.1035 16.1278 19.5598 16.9267L14.1431 13.0665L18.3797 18.099C17.8218 18.4611 17.1807 18.6665 16.5002 18.6665C15.1802 18.6665 14.0127 17.8937 13.3008 16.7065L12.3501 18.2875C13.3574 19.6633 14.8424 20.5331 16.5002 20.5331C17.616 20.5331 18.6562 20.1374 19.5237 19.4579L20.4288 20.5331L22.0002 18.6665L20.916 17.8937ZM14.1431 9.33314H15.7145V11.1998H14.1431V9.33314Z" fill="#FAD800"/>
<path d="M29.8571 0.933105H3.14279C1.84097 0.933105 0.785645 2.18671 0.785645 3.73311V24.2664C0.785645 25.8128 1.84097 27.0664 3.14279 27.0664H29.8571C31.1589 27.0664 32.2142 25.8128 32.2142 24.2664V3.73311C32.2142 2.18671 31.1589 0.933105 29.8571 0.933105Z" stroke="black" stroke-opacity="0.1"/>
</g>
</g>
<defs>
<clipPath id="clip0_62_564">
<rect width="33" height="28" fill="white"/>
</clipPath>
</defs>
</svg>
