<svg width="24" height="23" viewBox="0 0 24 23" fill="none" xmlns="http://www.w3.org/2000/svg">
<g clip-path="url(#clip0_143_14306)">
<mask id="mask0_143_14306" style="mask-type:alpha" maskUnits="userSpaceOnUse" x="0" y="0" width="24" height="23">
<path d="M21.7143 0.5H2.28571C1.02335 0.5 0 1.8133 0 3.43333V19.5667C0 21.1867 1.02335 22.5 2.28571 22.5H21.7143C22.9767 22.5 24 21.1867 24 19.5667V3.43333C24 1.8133 22.9767 0.5 21.7143 0.5Z" fill="white"/>
</mask>
<g mask="url(#mask0_143_14306)">
<path d="M21.7143 0.5H2.28571C1.02335 0.5 0 1.8133 0 3.43333V19.5667C0 21.1867 1.02335 22.5 2.28571 22.5H21.7143C22.9767 22.5 24 21.1867 24 19.5667V3.43333C24 1.8133 22.9767 0.5 21.7143 0.5Z" fill="white"/>
<path fill-rule="evenodd" clip-rule="evenodd" d="M0 15.1667H24V22.5H0V15.1667ZM0 0.5H24V7.83333H0V0.5Z" fill="#72ABE1"/>
<path d="M12.0004 13.7C12.9472 13.7 13.7147 12.7151 13.7147 11.5C13.7147 10.285 12.9472 9.30005 12.0004 9.30005C11.0536 9.30005 10.2861 10.285 10.2861 11.5C10.2861 12.7151 11.0536 13.7 12.0004 13.7Z" fill="#F8B500"/>
<path d="M21.7141 1.2334H2.28557C1.3388 1.2334 0.571289 2.21837 0.571289 3.4334V19.5667C0.571289 20.7818 1.3388 21.7667 2.28557 21.7667H21.7141C22.6609 21.7667 23.4284 20.7818 23.4284 19.5667V3.4334C23.4284 2.21837 22.6609 1.2334 21.7141 1.2334Z" stroke="black" stroke-opacity="0.1"/>
</g>
</g>
<defs>
<clipPath id="clip0_143_14306">
<rect width="24" height="22" fill="white" transform="translate(0 0.5)"/>
</clipPath>
</defs>
</svg>
