<svg width="33" height="28" viewBox="0 0 33 28" fill="none" xmlns="http://www.w3.org/2000/svg">
<g clip-path="url(#clip0_62_578)">
<mask id="mask0_62_578" style="mask-type:alpha" maskUnits="userSpaceOnUse" x="0" y="0" width="33" height="28">
<path d="M29.8571 0H3.14286C1.4071 0 0 1.67147 0 3.73333V24.2667C0 26.3285 1.4071 28 3.14286 28H29.8571C31.5929 28 33 26.3285 33 24.2667V3.73333C33 1.67147 31.5929 0 29.8571 0Z" fill="white"/>
</mask>
<g mask="url(#mask0_62_578)">
<path d="M29.8571 0H3.14286C1.4071 0 0 1.67147 0 3.73333V24.2667C0 26.3285 1.4071 28 3.14286 28H29.8571C31.5929 28 33 26.3285 33 24.2667V3.73333C33 1.67147 31.5929 0 29.8571 0Z" fill="white"/>
<path fill-rule="evenodd" clip-rule="evenodd" d="M0 18.6667H33V28H0V18.6667ZM0 0H33V9.33333H0V0Z" fill="#F02532"/>
<path d="M29.8571 0.933105H3.14279C1.84097 0.933105 0.785645 2.18671 0.785645 3.73311V24.2664C0.785645 25.8128 1.84097 27.0664 3.14279 27.0664H29.8571C31.1589 27.0664 32.2142 25.8128 32.2142 24.2664V3.73311C32.2142 2.18671 31.1589 0.933105 29.8571 0.933105Z" stroke="black" stroke-opacity="0.1"/>
</g>
</g>
<defs>
<clipPath id="clip0_62_578">
<rect width="33" height="28" fill="white"/>
</clipPath>
</defs>
</svg>
