<svg width="24" height="23" viewBox="0 0 24 23" fill="none" xmlns="http://www.w3.org/2000/svg">
<g clip-path="url(#clip0_143_14304)">
<mask id="mask0_143_14304" style="mask-type:alpha" maskUnits="userSpaceOnUse" x="0" y="0" width="24" height="23">
<path d="M21.7143 0.5H2.28571C1.02335 0.5 0 1.8133 0 3.43333V19.5667C0 21.1867 1.02335 22.5 2.28571 22.5H21.7143C22.9767 22.5 24 21.1867 24 19.5667V3.43333C24 1.8133 22.9767 0.5 21.7143 0.5Z" fill="white"/>
</mask>
<g mask="url(#mask0_143_14304)">
<path d="M21.7143 0.5H2.28571C1.02335 0.5 0 1.8133 0 3.43333V19.5667C0 21.1867 1.02335 22.5 2.28571 22.5H21.7143C22.9767 22.5 24 21.1867 24 19.5667V3.43333C24 1.8133 22.9767 0.5 21.7143 0.5Z" fill="#002B7F"/>
<path fill-rule="evenodd" clip-rule="evenodd" d="M5.71443 7.83324H5.13773C4.81814 7.83324 4.57157 8.16156 4.57157 8.56657C4.57157 8.95973 4.82505 9.2999 5.13773 9.2999H5.71443V10.04C5.71443 10.4501 5.97026 10.7666 6.28585 10.7666C6.59222 10.7666 6.85728 10.4413 6.85728 10.04V9.2999H7.43398C7.75356 9.2999 8.00014 8.97158 8.00014 8.56657C8.00014 8.1734 7.74666 7.83324 7.43398 7.83324H6.85728V7.09314C6.85728 6.68301 6.60144 6.36657 6.28585 6.36657C5.97949 6.36657 5.71443 6.69187 5.71443 7.09314V7.83324ZM3.42871 4.8999H4.57157V6.36657H3.42871V4.8999Z" fill="white"/>
<path d="M24 13.7H0V16.6333H24V13.7Z" fill="#F9E814"/>
<path d="M21.7141 1.2334H2.28557C1.3388 1.2334 0.571289 2.21837 0.571289 3.4334V19.5667C0.571289 20.7818 1.3388 21.7667 2.28557 21.7667H21.7141C22.6609 21.7667 23.4284 20.7818 23.4284 19.5667V3.4334C23.4284 2.21837 22.6609 1.2334 21.7141 1.2334Z" stroke="black" stroke-opacity="0.1"/>
</g>
</g>
<defs>
<clipPath id="clip0_143_14304">
<rect width="24" height="22" fill="white" transform="translate(0 0.5)"/>
</clipPath>
</defs>
</svg>
