<svg width="16" height="15" viewBox="0 0 16 15" fill="none" xmlns="http://www.w3.org/2000/svg">
<g clip-path="url(#clip0_180_1803)">
<mask id="mask0_180_1803" style="mask-type:alpha" maskUnits="userSpaceOnUse" x="0" y="0" width="16" height="15">
<path d="M14.4762 0.5H1.52381C0.682233 0.5 0 1.33574 0 2.36667V12.6333C0 13.6643 0.682233 14.5 1.52381 14.5H14.4762C15.3178 14.5 16 13.6643 16 12.6333V2.36667C16 1.33574 15.3178 0.5 14.4762 0.5Z" fill="white"/>
</mask>
<g mask="url(#mask0_180_1803)">
<path d="M14.4762 0.5H1.52381C0.682233 0.5 0 1.33574 0 2.36667V12.6333C0 13.6643 0.682233 14.5 1.52381 14.5H14.4762C15.3178 14.5 16 13.6643 16 12.6333V2.36667C16 1.33574 15.3178 0.5 14.4762 0.5Z" fill="#D4112A"/>
<path fill-rule="evenodd" clip-rule="evenodd" d="M0 10.7666H16V14.4999H0V10.7666Z" fill="#20BD42"/>
<path fill-rule="evenodd" clip-rule="evenodd" d="M0 0.5H16V4.23333H0V0.5Z" fill="#02A3BD"/>
<path fill-rule="evenodd" clip-rule="evenodd" d="M0 5.16668H16V9.83335H0V5.16668ZM3.80952 4.15402C3.69067 4.20535 3.5619 4.23335 3.42857 4.23335C2.79771 4.23335 2.28571 3.60615 2.28571 2.83335C2.28571 2.06055 2.79771 1.43335 3.42857 1.43335C3.5619 1.43335 3.69067 1.46135 3.80952 1.51268C3.36533 1.70495 3.04762 2.22388 3.04762 2.83335C3.04762 3.44282 3.36533 3.96268 3.80952 4.15402Z" fill="white"/>
<path fill-rule="evenodd" clip-rule="evenodd" d="M4.57129 2.36668H5.33319V3.30002H4.57129V2.36668ZM5.33319 1.43335H6.0951V2.36668H5.33319V1.43335ZM6.0951 2.36668H6.857V3.30002H6.0951V2.36668ZM6.857 1.43335H7.61891V2.36668H6.857V1.43335ZM7.61891 2.36668H8.38081V3.30002H7.61891V2.36668ZM6.857 3.30002H7.61891V4.23335H6.857V3.30002ZM5.33319 3.30002H6.0951V4.23335H5.33319V3.30002Z" fill="#78CDDB"/>
<path d="M14.4761 0.966553H1.52372C0.892534 0.966553 0.380859 1.59335 0.380859 2.36655V12.6332C0.380859 13.4064 0.892534 14.0332 1.52372 14.0332H14.4761C15.1073 14.0332 15.619 13.4064 15.619 12.6332V2.36655C15.619 1.59335 15.1073 0.966553 14.4761 0.966553Z" stroke="black" stroke-opacity="0.1"/>
</g>
</g>
<defs>
<clipPath id="clip0_180_1803">
<rect width="16" height="14" fill="white" transform="translate(0 0.5)"/>
</clipPath>
</defs>
</svg>
