<svg width="26" height="25" viewBox="0 0 26 25" fill="none" xmlns="http://www.w3.org/2000/svg">
<path d="M18.8836 3.94444C19.6096 5.00778 20.0287 6.26422 20.0287 7.61111C20.0287 8.958 19.6096 10.2144 18.8836 11.2778M7.97271 3.94444C7.24781 5.00778 6.82871 6.26422 6.82871 7.61111C6.82871 8.958 7.24781 10.2144 7.97381 11.2778M22.5763 1.5C23.7467 3.24778 24.4287 5.35 24.4287 7.61111C24.4287 9.87222 23.7467 11.9744 22.5763 13.7222M4.28111 1.5C3.11071 3.24778 2.42871 5.35 2.42871 7.61111C2.42871 9.87222 3.11071 11.9744 4.28111 13.7222M12.3287 10.0556L7.92871 23.5M18.9287 23.5L14.5287 10.0556M9.57871 18.6111H17.2787M15.6287 7.61111C15.6287 8.25942 15.3969 8.88117 14.9843 9.33959C14.5718 9.79802 14.0122 10.0556 13.4287 10.0556C12.8452 10.0556 12.2857 9.79802 11.8731 9.33959C11.4605 8.88117 11.2287 8.25942 11.2287 7.61111C11.2287 6.9628 11.4605 6.34105 11.8731 5.88263C12.2857 5.42421 12.8452 5.16667 13.4287 5.16667C14.0122 5.16667 14.5718 5.42421 14.9843 5.88263C15.3969 6.34105 15.6287 6.9628 15.6287 7.61111Z" stroke="#035178" stroke-width="3" stroke-linecap="round" stroke-linejoin="round"/>
</svg>
