<svg width="28" height="29" viewBox="0 0 28 29" fill="none" xmlns="http://www.w3.org/2000/svg">
<mask id="path-1-inside-1_180_7829" fill="white">
<path d="M25.2 6.04851H17.3796L20.5898 2.61643L18.6102 0.5L14 5.42885L9.3898 0.5L7.4102 2.61643L10.6204 6.04851H2.8C1.2558 6.04851 0 7.39111 0 9.04204V25.5065C0 27.1574 1.2558 28.5 2.8 28.5H25.2C26.7442 28.5 28 27.1574 28 25.5065V9.04204C28 7.39111 26.7442 6.04851 25.2 6.04851ZM2.8 25.5065V9.04204H25.2L25.2028 25.5065H2.8Z"/>
</mask>
<path d="M25.2 6.04851H17.3796L20.5898 2.61643L18.6102 0.5L14 5.42885L9.3898 0.5L7.4102 2.61643L10.6204 6.04851H2.8C1.2558 6.04851 0 7.39111 0 9.04204V25.5065C0 27.1574 1.2558 28.5 2.8 28.5H25.2C26.7442 28.5 28 27.1574 28 25.5065V9.04204C28 7.39111 26.7442 6.04851 25.2 6.04851ZM2.8 25.5065V9.04204H25.2L25.2028 25.5065H2.8Z" fill="#D90D08"/>
<path d="M17.3796 6.04851L15.1886 3.9992L10.4658 9.04851H17.3796V6.04851ZM20.5898 2.61643L22.7808 4.66574L24.6976 2.61643L22.7808 0.567112L20.5898 2.61643ZM18.6102 0.5L20.8012 -1.54932L18.6102 -3.89171L16.4192 -1.54931L18.6102 0.5ZM14 5.42885L11.809 7.47817L14 9.82056L16.191 7.47817L14 5.42885ZM9.3898 0.5L11.5808 -1.54931L9.3898 -3.89171L7.19884 -1.54931L9.3898 0.5ZM7.4102 2.61643L5.21924 0.567112L3.30241 2.61643L5.21924 4.66574L7.4102 2.61643ZM10.6204 6.04851V9.04851H17.5342L12.8114 3.9992L10.6204 6.04851ZM2.8 25.5065H-0.2V28.5065H2.8V25.5065ZM2.8 9.04204V6.04204H-0.2V9.04204H2.8ZM25.2 9.04204L28.2 9.04153L28.1995 6.04204H25.2V9.04204ZM25.2028 25.5065V28.5065H28.2033L28.2028 25.506L25.2028 25.5065ZM25.2 3.04851H17.3796V9.04851H25.2V3.04851ZM19.5706 8.09783L22.7808 4.66574L18.3988 0.567111L15.1886 3.9992L19.5706 8.09783ZM22.7808 0.567112L20.8012 -1.54932L16.4192 2.54932L18.3988 4.66574L22.7808 0.567112ZM16.4192 -1.54931L11.809 3.37953L16.191 7.47817L20.8012 2.54931L16.4192 -1.54931ZM16.191 3.37953L11.5808 -1.54931L7.19884 2.54931L11.809 7.47817L16.191 3.37953ZM7.19884 -1.54931L5.21924 0.567112L9.60116 4.66574L11.5808 2.54931L7.19884 -1.54931ZM5.21924 4.66574L8.42944 8.09783L12.8114 3.9992L9.60116 0.567112L5.21924 4.66574ZM10.6204 3.04851H2.8V9.04851H10.6204V3.04851ZM2.8 3.04851C-0.586761 3.04851 -3 5.92627 -3 9.04204H3C3 8.9829 3.0211 8.96564 3.01189 8.97549C3.00653 8.98121 2.98766 8.99924 2.94869 9.01689C2.9069 9.03582 2.85397 9.04851 2.8 9.04851V3.04851ZM-3 9.04204V25.5065H3V9.04204H-3ZM-3 25.5065C-3 28.6222 -0.586762 31.5 2.8 31.5V25.5C2.85397 25.5 2.9069 25.5127 2.94869 25.5316C2.98766 25.5493 3.00653 25.5673 3.01189 25.573C3.0211 25.5829 3 25.5656 3 25.5065H-3ZM2.8 31.5H25.2V25.5H2.8V31.5ZM25.2 31.5C28.5868 31.5 31 28.6222 31 25.5065H25C25 25.5656 24.9789 25.5829 24.9881 25.573C24.9935 25.5673 25.0123 25.5493 25.0513 25.5316C25.0931 25.5127 25.146 25.5 25.2 25.5V31.5ZM31 25.5065V9.04204H25V25.5065H31ZM31 9.04204C31 5.92627 28.5868 3.04851 25.2 3.04851V9.04851C25.146 9.04851 25.0931 9.03582 25.0513 9.01689C25.0123 8.99924 24.9935 8.98121 24.9881 8.97549C24.9789 8.96564 25 8.9829 25 9.04204H31ZM5.8 25.5065V9.04204H-0.2V25.5065H5.8ZM2.8 12.042H25.2V6.04204H2.8V12.042ZM22.2 9.04255L22.2028 25.507L28.2028 25.506L28.2 9.04153L22.2 9.04255ZM25.2028 22.5065H2.8V28.5065H25.2028V22.5065Z" fill="#FF0000" mask="url(#path-1-inside-1_180_7829)"/>
</svg>
