<svg width="25" height="25" viewBox="0 0 25 25" fill="none" xmlns="http://www.w3.org/2000/svg">
<rect x="0.428711" y="0.5" width="24" height="24" rx="12" fill="#FF0000"/>
<path d="M20.6478 8.37825C20.45 7.6439 19.871 7.06489 19.1367 6.86718C17.7951 6.5 12.4286 6.5 12.4286 6.5C12.4286 6.5 7.06219 6.5 5.72058 6.85306C5.00034 7.05077 4.40721 7.6439 4.2095 8.37825C3.85645 9.71986 3.85645 12.5019 3.85645 12.5019C3.85645 12.5019 3.85645 15.2981 4.2095 16.6256C4.40721 17.36 4.98622 17.939 5.72058 18.1367C7.07631 18.5039 12.4286 18.5039 12.4286 18.5039C12.4286 18.5039 17.7951 18.5039 19.1367 18.1508C19.871 17.9531 20.45 17.3741 20.6478 16.6397C21.0008 15.2981 21.0008 12.5161 21.0008 12.5161C21.0008 12.5161 21.0149 9.71986 20.6478 8.37825Z" fill="white"/>
<path d="M10.7197 15.0721L15.1823 12.5019L10.7197 9.93164V15.0721Z" fill="#FF0000"/>
</svg>
