<svg width="28" height="28" viewBox="0 0 28 28" fill="none" xmlns="http://www.w3.org/2000/svg">
<path d="M19.9508 4.66667C20.7428 5.82667 21.2 7.19733 21.2 8.66667C21.2 10.136 20.7428 11.5067 19.9508 12.6667M8.048 4.66667C7.2572 5.82667 6.8 7.19733 6.8 8.66667C6.8 10.136 7.2572 11.5067 8.0492 12.6667M23.9792 2C25.256 3.90667 26 6.2 26 8.66667C26 11.1333 25.256 13.4267 23.9792 15.3333M4.0208 2C2.744 3.90667 2 6.2 2 8.66667C2 11.1333 2.744 13.4267 4.0208 15.3333M12.8 11.3333L8 26M20 26L15.2 11.3333M9.8 20.6667H18.2M16.4 8.66667C16.4 9.37391 16.1471 10.0522 15.6971 10.5523C15.247 11.0524 14.6365 11.3333 14 11.3333C13.3635 11.3333 12.753 11.0524 12.3029 10.5523C11.8529 10.0522 11.6 9.37391 11.6 8.66667C11.6 7.95942 11.8529 7.28115 12.3029 6.78105C12.753 6.28095 13.3635 6 14 6C14.6365 6 15.247 6.28095 15.6971 6.78105C16.1471 7.28115 16.4 7.95942 16.4 8.66667Z" stroke="#416FE6" stroke-width="2.5" stroke-linecap="round" stroke-linejoin="round"/>
</svg>
