<svg width="86" height="25" viewBox="0 0 86 25" fill="none" xmlns="http://www.w3.org/2000/svg">
<path d="M0.818182 24V0.727272H3.63636V21.5H14.4545V24H0.818182ZM37.5483 12.3636C37.5483 14.8182 37.1051 16.9394 36.2188 18.7273C35.3324 20.5152 34.1165 21.8939 32.571 22.8636C31.0256 23.8333 29.2604 24.3182 27.2756 24.3182C25.2907 24.3182 23.5256 23.8333 21.9801 22.8636C20.4347 21.8939 19.2188 20.5152 18.3324 18.7273C17.446 16.9394 17.0028 14.8182 17.0028 12.3636C17.0028 9.90909 17.446 7.78788 18.3324 6C19.2188 4.21212 20.4347 2.83333 21.9801 1.86364C23.5256 0.893939 25.2907 0.40909 27.2756 0.40909C29.2604 0.40909 31.0256 0.893939 32.571 1.86364C34.1165 2.83333 35.3324 4.21212 36.2188 6C37.1051 7.78788 37.5483 9.90909 37.5483 12.3636ZM34.821 12.3636C34.821 10.3485 34.4839 8.64773 33.8097 7.26136C33.143 5.875 32.2377 4.82576 31.0938 4.11364C29.9574 3.40151 28.6847 3.04545 27.2756 3.04545C25.8665 3.04545 24.59 3.40151 23.446 4.11364C22.3097 4.82576 21.4044 5.875 20.7301 7.26136C20.0634 8.64773 19.7301 10.3485 19.7301 12.3636C19.7301 14.3788 20.0634 16.0795 20.7301 17.4659C21.4044 18.8523 22.3097 19.9015 23.446 20.6136C24.59 21.3258 25.8665 21.6818 27.2756 21.6818C28.6847 21.6818 29.9574 21.3258 31.0938 20.6136C32.2377 19.9015 33.143 18.8523 33.8097 17.4659C34.4839 16.0795 34.821 14.3788 34.821 12.3636ZM58.196 8C57.946 7.23485 57.6165 6.54924 57.2074 5.94318C56.8059 5.32954 56.3248 4.80682 55.7642 4.375C55.2112 3.94318 54.5824 3.61364 53.8778 3.38636C53.1733 3.15909 52.4006 3.04545 51.5597 3.04545C50.1809 3.04545 48.9271 3.40151 47.7983 4.11364C46.6695 4.82576 45.7718 5.875 45.1051 7.26136C44.4384 8.64773 44.1051 10.3485 44.1051 12.3636C44.1051 14.3788 44.4422 16.0795 45.1165 17.4659C45.7907 18.8523 46.7036 19.9015 47.8551 20.6136C49.0066 21.3258 50.3021 21.6818 51.7415 21.6818C53.0748 21.6818 54.2491 21.3977 55.2642 20.8295C56.2869 20.2538 57.0824 19.4432 57.6506 18.3977C58.2263 17.3447 58.5142 16.1061 58.5142 14.6818L59.3778 14.8636H52.3778V12.3636H61.2415V14.8636C61.2415 16.7803 60.8324 18.447 60.0142 19.8636C59.2036 21.2803 58.0824 22.3788 56.6506 23.1591C55.2263 23.9318 53.59 24.3182 51.7415 24.3182C49.6809 24.3182 47.8703 23.8333 46.3097 22.8636C44.7566 21.8939 43.5445 20.5152 42.6733 18.7273C41.8097 16.9394 41.3778 14.8182 41.3778 12.3636C41.3778 10.5227 41.6241 8.86742 42.1165 7.39773C42.6165 5.92045 43.321 4.66288 44.2301 3.625C45.1392 2.58712 46.215 1.79167 47.4574 1.23864C48.6998 0.685605 50.0672 0.40909 51.5597 0.40909C52.7869 0.40909 53.9309 0.594696 54.9915 0.965908C56.0597 1.32954 57.0104 1.84848 57.8438 2.52273C58.6847 3.18939 59.3854 3.98864 59.946 4.92045C60.5066 5.8447 60.893 6.87121 61.1051 8H58.196ZM85.7045 12.3636C85.7045 14.8182 85.2614 16.9394 84.375 18.7273C83.4886 20.5152 82.2727 21.8939 80.7273 22.8636C79.1818 23.8333 77.4167 24.3182 75.4318 24.3182C73.447 24.3182 71.6818 23.8333 70.1364 22.8636C68.5909 21.8939 67.375 20.5152 66.4886 18.7273C65.6023 16.9394 65.1591 14.8182 65.1591 12.3636C65.1591 9.90909 65.6023 7.78788 66.4886 6C67.375 4.21212 68.5909 2.83333 70.1364 1.86364C71.6818 0.893939 73.447 0.40909 75.4318 0.40909C77.4167 0.40909 79.1818 0.893939 80.7273 1.86364C82.2727 2.83333 83.4886 4.21212 84.375 6C85.2614 7.78788 85.7045 9.90909 85.7045 12.3636ZM82.9773 12.3636C82.9773 10.3485 82.6402 8.64773 81.9659 7.26136C81.2992 5.875 80.3939 4.82576 79.25 4.11364C78.1136 3.40151 76.8409 3.04545 75.4318 3.04545C74.0227 3.04545 72.7462 3.40151 71.6023 4.11364C70.4659 4.82576 69.5606 5.875 68.8864 7.26136C68.2197 8.64773 67.8864 10.3485 67.8864 12.3636C67.8864 14.3788 68.2197 16.0795 68.8864 17.4659C69.5606 18.8523 70.4659 19.9015 71.6023 20.6136C72.7462 21.3258 74.0227 21.6818 75.4318 21.6818C76.8409 21.6818 78.1136 21.3258 79.25 20.6136C80.3939 19.9015 81.2992 18.8523 81.9659 17.4659C82.6402 16.0795 82.9773 14.3788 82.9773 12.3636Z" fill="white"/>
</svg>
