<svg display="none" xmlns="http://www.w3.org/2000/svg">
	<symbol id="football" viewBox="0 0 22 22">
		<path
			d="M19.185 16.75C19.3839 16.75 19.5747 16.671 19.7153 16.5303C19.856 16.3897 19.935 16.1989 19.935 16C19.935 15.8011 19.856 15.6103 19.7153 15.4697C19.5747 15.329 19.3839 15.25 19.185 15.25V16.75ZM12.48 20.263C12.4474 20.3568 12.4337 20.4562 12.4398 20.5553C12.4458 20.6545 12.4716 20.7514 12.5154 20.8405C12.5593 20.9297 12.6204 21.0092 12.6952 21.0745C12.77 21.1398 12.8571 21.1896 12.9513 21.221C13.0456 21.2524 13.1451 21.2647 13.2442 21.2573C13.3432 21.25 13.4398 21.223 13.5283 21.1779C13.6169 21.1329 13.6956 21.0707 13.7599 20.9951C13.8242 20.9194 13.8729 20.8316 13.903 20.737L12.48 20.263ZM2.998 15.25C2.79909 15.25 2.60832 15.329 2.46767 15.4697C2.32702 15.6103 2.248 15.8011 2.248 16C2.248 16.1989 2.32702 16.3897 2.46767 16.5303C2.60832 16.671 2.79909 16.75 2.998 16.75V15.25ZM8.279 20.737C8.34379 20.9232 8.47932 21.0765 8.65626 21.1635C8.83319 21.2506 9.0373 21.2645 9.22438 21.2021C9.41147 21.1398 9.56648 21.0063 9.65587 20.8306C9.74526 20.6548 9.76183 20.4509 9.702 20.263L8.279 20.737ZM4.556 4.46C4.50455 4.26785 4.37887 4.10401 4.20662 4.00452C4.03437 3.90503 3.82965 3.87805 3.6375 3.9295C3.44535 3.98095 3.28151 4.10663 3.18202 4.27888C3.08253 4.45113 3.05555 4.65585 3.107 4.848L4.556 4.46ZM0.627 10.989C0.461107 11.0988 0.345626 11.27 0.305962 11.4649C0.266298 11.6599 0.3057 11.8626 0.4155 12.0285C0.5253 12.1944 0.696503 12.3099 0.891447 12.3495C1.08639 12.3892 1.28911 12.3498 1.455 12.24L0.627 10.989ZM18.934 4.849C18.9595 4.75386 18.966 4.65463 18.9531 4.55698C18.9402 4.45933 18.9082 4.36517 18.859 4.27988C18.8097 4.19459 18.7441 4.11984 18.666 4.05989C18.5878 3.99994 18.4986 3.95598 18.4035 3.9305C18.2113 3.87905 18.0066 3.90603 17.8344 4.00552C17.7491 4.05478 17.6743 4.12036 17.6144 4.19851C17.5544 4.27666 17.5105 4.36586 17.485 4.461L18.934 4.849ZM20.586 12.24C20.7519 12.3498 20.9546 12.3892 21.1496 12.3495C21.3445 12.3099 21.5157 12.1944 21.6255 12.0285C21.7353 11.8626 21.7747 11.6599 21.735 11.4649C21.6954 11.27 21.5799 11.0988 21.414 10.989L20.586 12.24ZM15.09 2.836C15.2495 2.72024 15.3571 2.54631 15.3894 2.35186C15.4217 2.1574 15.3762 1.95805 15.2626 1.79692C15.1491 1.63579 14.9766 1.52584 14.7826 1.49086C14.5886 1.45588 14.3887 1.49868 14.226 1.61L15.09 2.836ZM7.616 1.397C7.53705 1.33527 7.44654 1.28998 7.34979 1.26382C7.25305 1.23766 7.15205 1.23115 7.05274 1.24468C6.95344 1.25821 6.85786 1.2915 6.77165 1.34259C6.68543 1.39369 6.61033 1.46154 6.55078 1.54214C6.49122 1.62275 6.44843 1.71447 6.42492 1.81189C6.40142 1.90932 6.39768 2.01046 6.41392 2.10935C6.43016 2.20825 6.46605 2.30288 6.51948 2.38767C6.57291 2.47246 6.6428 2.54568 6.725 2.603L7.616 1.397ZM20.227 11C20.227 16.11 16.09 20.25 10.989 20.25V21.75C16.92 21.75 21.727 16.936 21.727 11H20.227ZM10.989 20.25C5.887 20.25 1.75 16.11 1.75 11H0.25C0.25 16.936 5.057 21.75 10.989 21.75V20.25ZM1.75 11C1.75 5.89 5.887 1.75 10.989 1.75V0.25C5.057 0.25 0.25 5.064 0.25 11H1.75ZM10.989 1.75C16.089 1.75 20.227 5.89 20.227 11H21.727C21.727 5.064 16.92 0.25 10.989 0.25V1.75ZM11.139 9.06L12.976 10.464L13.887 9.273L12.05 7.868L11.139 9.06ZM13.063 10.737L12.341 13.074L13.775 13.516L14.495 11.179L13.063 10.737ZM12.103 13.25H9.873V14.75H12.103V13.25ZM9.636 13.074L8.914 10.737L7.481 11.179L8.202 13.516L9.636 13.074ZM9 10.464L10.837 9.059L9.926 7.868L8.089 9.273L9 10.464ZM19.185 15.25H17.57V16.75H19.185V15.25ZM13.068 18.498L12.48 20.263L13.903 20.737L14.49 18.972L13.068 18.498ZM17.57 15.25C16.892 15.25 16.319 15.249 15.854 15.302C15.37 15.357 14.925 15.478 14.522 15.769L15.4 16.986C15.52 16.899 15.684 16.831 16.025 16.792C16.385 16.752 16.857 16.75 17.57 16.75V15.25ZM14.49 18.972C14.716 18.296 14.865 17.848 15.019 17.519C15.163 17.207 15.28 17.072 15.4 16.986L14.522 15.769C14.118 16.061 13.863 16.444 13.658 16.887C13.46 17.312 13.282 17.855 13.068 18.498L14.49 18.972ZM2.999 16.75H4.614V15.25H2.998L2.999 16.75ZM7.693 18.972L8.279 20.737L9.703 20.263L9.116 18.498L7.693 18.972ZM4.614 16.75C5.327 16.75 5.797 16.751 6.158 16.792C6.498 16.832 6.663 16.899 6.783 16.986L7.661 15.769C7.257 15.479 6.812 15.357 6.328 15.302C5.863 15.249 5.291 15.25 4.614 15.25V16.75ZM9.116 18.498C8.901 17.855 8.722 17.312 8.524 16.887C8.319 16.445 8.064 16.061 7.661 15.769L6.783 16.986C6.903 17.072 7.019 17.206 7.164 17.519C7.317 17.849 7.467 18.296 7.693 18.972L9.116 18.498ZM3.107 4.848L3.525 6.409L4.974 6.021L4.556 4.46L3.107 4.848ZM2.178 9.964L0.628 10.988L1.455 12.24L3.005 11.214L2.178 9.964ZM3.525 6.409C3.709 7.098 3.83 7.554 3.884 7.913C3.934 8.253 3.911 8.431 3.859 8.569L5.262 9.101C5.438 8.635 5.439 8.175 5.367 7.692C5.298 7.229 5.149 6.676 4.974 6.021L3.525 6.409ZM3.005 11.214C3.571 10.84 4.048 10.526 4.407 10.225C4.781 9.912 5.085 9.566 5.262 9.101L3.859 8.569C3.807 8.707 3.707 8.855 3.443 9.076C3.165 9.309 2.773 9.571 2.178 9.964L3.005 11.214ZM17.485 4.461L17.067 6.022L18.516 6.409L18.934 4.847L17.485 4.461ZM19.035 11.214L20.586 12.24L21.414 10.988L19.863 9.963L19.035 11.214ZM17.067 6.022C16.892 6.678 16.743 7.229 16.674 7.692C16.602 8.175 16.603 8.636 16.779 9.101L18.182 8.569C18.13 8.431 18.107 8.254 18.157 7.913C18.211 7.553 18.332 7.098 18.516 6.409L17.067 6.022ZM19.863 9.963C19.269 9.57 18.876 9.309 18.598 9.076C18.334 8.856 18.234 8.707 18.182 8.569L16.779 9.101C16.956 9.566 17.26 9.912 17.634 10.225C17.993 10.526 18.47 10.841 19.036 11.215L19.863 9.963ZM14.226 1.61L12.906 2.542L13.77 3.767L15.09 2.836L14.226 1.61ZM9.111 2.5L7.615 1.398L6.725 2.604L8.22 3.707L9.111 2.5ZM12.905 2.542C12.323 2.952 11.937 3.223 11.619 3.397C11.317 3.562 11.144 3.601 10.997 3.6L10.98 5.1C11.478 5.105 11.91 4.947 12.339 4.713C12.749 4.488 13.216 4.158 13.769 3.767L12.905 2.542ZM8.22 3.707C8.766 4.11 9.225 4.45 9.63 4.684C10.053 4.927 10.483 5.094 10.98 5.1L10.997 3.6C10.849 3.598 10.677 3.555 10.379 3.384C10.064 3.203 9.684 2.923 9.111 2.5L8.22 3.707ZM12.976 10.464C13.0173 10.4956 13.0477 10.5393 13.063 10.589L14.496 10.146C14.3886 9.79882 14.1757 9.49371 13.887 9.273L12.976 10.464ZM13.063 10.589C13.0779 10.6372 13.0779 10.6888 13.063 10.737L14.496 11.179C14.5999 10.8425 14.5999 10.4825 14.496 10.146L13.063 10.589ZM17.193 8.142L13.493 9.675L14.066 11.061L17.768 9.528L17.193 8.142ZM12.05 7.868C11.7451 7.63476 11.3719 7.50826 10.988 7.508V9.008C11.0428 9.00759 11.0961 9.02594 11.139 9.06L12.05 7.868ZM10.988 7.508C10.615 7.508 10.24 7.628 9.927 7.868L10.837 9.059C10.8808 9.02613 10.9342 9.00856 10.989 9.009L10.988 7.508ZM11.738 8.258V4.35H10.238V8.258H11.738ZM12.341 13.074C12.3261 13.1226 12.2968 13.1655 12.257 13.197L13.185 14.375C13.4643 14.1552 13.6701 13.8556 13.775 13.516L12.341 13.074ZM12.257 13.197C12.2133 13.2312 12.1595 13.2498 12.104 13.25V14.75C12.506 14.75 12.884 14.612 13.185 14.375L12.257 13.197ZM15.529 15.887L13.289 13.295L12.154 14.277L14.394 16.868L15.529 15.887ZM9.873 13.25C9.81753 13.2498 9.76371 13.2312 9.72 13.197L8.792 14.375C9.092 14.612 9.471 14.75 9.873 14.75V13.25ZM9.72 13.197C9.68015 13.1655 9.65085 13.1226 9.636 13.074L8.202 13.516C8.31 13.865 8.519 14.161 8.792 14.376L9.72 13.197ZM7.81 16.84L9.846 14.248L8.666 13.322L6.631 15.913L7.81 16.84ZM8.914 10.736C8.89906 10.6878 8.89906 10.6372 8.914 10.589L7.481 10.145C7.37706 10.4815 7.37706 10.8425 7.481 11.179L8.914 10.736ZM8.914 10.589C8.92929 10.5393 8.95971 10.4946 9.001 10.463L8.09 9.273C7.80111 9.49397 7.58824 9.79746 7.481 10.145L8.914 10.589ZM8.489 9.676L4.852 8.144L4.269 9.526L7.906 11.059L8.489 9.676Z" />
	</symbol>
	<symbol id="hockey" viewBox="0 0 41 40">
		<path d="M37.3567 8.57101C38.003 9.37893 38.5251 10.2697 38.9228 11.2434C39.3206 12.217 39.5236 13.2891 39.5319 14.4595L39.5319 25.1801C39.5319 26.3402 39.333 27.407 38.9353 28.3807C38.5375 29.3544 38.0113 30.2503 37.3567 31.0686C36.4949 32.1458 35.4591 33.0884 34.2493 33.8963C33.0395 34.7043 31.7178 35.3724 30.2843 35.9006C28.8507 36.4289 27.3343 36.8328 25.735 37.1125C24.1357 37.3922 22.524 37.532 20.8999 37.532C19.2758 37.532 17.6682 37.3973 16.0772 37.128C14.4862 36.8587 12.9698 36.4548 11.528 35.9162C10.0861 35.3775 8.76032 34.7043 7.5505 33.8963C6.34068 33.0884 5.30488 32.1458 4.4431 31.0686C3.80504 30.271 3.283 29.3802 2.87697 28.3962C2.47093 27.4122 2.26791 26.3402 2.26791 25.1801L2.26791 14.4595C2.26791 13.2994 2.46679 12.2326 2.86454 11.2589C3.26228 10.2853 3.78847 9.38929 4.4431 8.57101C5.30488 7.49377 6.34068 6.55119 7.5505 5.74327C8.76031 4.93535 10.082 4.25689 11.5155 3.70792C12.9491 3.15895 14.4655 2.75498 16.0648 2.49603C17.6641 2.23708 19.2758 2.10761 20.8999 2.10761C22.524 2.10761 24.1316 2.24226 25.7226 2.51157C27.3136 2.78088 28.83 3.18484 30.2718 3.72346C31.7137 4.26207 33.0395 4.93535 34.2493 5.74327C35.4591 6.55119 36.4949 7.49377 37.3567 8.57101ZM5.9968 10.6064C4.99414 11.8597 4.5011 13.1492 4.51767 14.4751C4.53425 15.8009 5.04386 17.0905 6.04652 18.3438C6.79229 19.276 7.7038 20.0943 8.78103 20.7986C9.85826 21.503 11.0556 22.0882 12.3732 22.5543C13.6907 23.0204 15.0663 23.3726 16.4998 23.6108C17.9334 23.8491 19.3959 23.9682 20.8875 23.9682C22.379 23.9682 23.8499 23.8491 25.3 23.6108C26.7501 23.3726 28.1257 23.0204 29.4266 22.5543C30.7276 22.0882 31.9167 21.503 32.9939 20.7986C34.0711 20.0943 34.9909 19.276 35.7533 18.3438C36.7559 17.0905 37.2614 15.7957 37.2697 14.4595C37.278 13.1234 36.7808 11.8286 35.7781 10.5753C35.0241 9.6327 34.1084 8.80924 33.0312 8.1049C31.954 7.40055 30.7566 6.81532 29.439 6.34921C28.1215 5.8831 26.7418 5.52575 25.3 5.27716C23.8581 5.02857 22.3915 4.91463 20.8999 4.93534C19.4083 4.95606 17.9375 5.07518 16.4874 5.2927C15.0373 5.51021 13.6576 5.86757 12.3483 6.36475C11.0391 6.86193 9.84583 7.45234 8.7686 8.13597C7.69137 8.8196 6.76743 9.64306 5.9968 10.6064ZM5.9968 29.0333C6.75086 29.9758 7.67065 30.8045 8.75617 31.5192C9.84169 32.2339 11.0391 32.8191 12.3483 33.2749C13.6576 33.7306 15.0373 34.088 16.4874 34.3469C17.9375 34.6059 19.4042 34.7302 20.8875 34.7198C22.3707 34.7094 23.8416 34.5903 25.3 34.3624C26.7584 34.1346 28.1381 33.7772 29.439 33.2904C30.74 32.8036 31.9374 32.208 33.0312 31.5036C34.125 30.7993 35.0489 29.9758 35.803 29.0333C36.2256 28.505 36.5736 27.9249 36.8471 27.2931C37.1205 26.6613 37.2614 25.9569 37.2697 25.1801L37.2821 20.4413C36.4121 21.4874 35.3763 22.4093 34.1747 23.2069C32.9732 24.0044 31.6557 24.6674 30.2221 25.1956C28.7886 25.7239 27.2804 26.1175 25.6977 26.3764C24.115 26.6354 22.5199 26.7648 20.9123 26.7648C19.3048 26.7648 17.7013 26.6354 16.1021 26.3764C14.5028 26.1175 13.003 25.7239 11.6026 25.1956C10.2021 24.6674 8.88047 24.0096 7.63751 23.2224C6.39455 22.4352 5.3546 21.5082 4.51767 20.4413L4.5301 25.1801C4.53839 25.9362 4.67926 26.6302 4.95271 27.262C5.22616 27.8939 5.57419 28.4843 5.9968 29.0333Z"/>
	</symbol>
	<symbol id="tennis" viewBox="0 0 37 37">
		<path fill-rule="evenodd" clip-rule="evenodd" d="M19.1645 2.02646C19.1645 2.02585 19.1645 2.02527 20.6614 2.12176C22.1583 2.21826 22.1584 2.21772 22.1584 2.2172L22.1585 2.21484L22.1586 2.21358C22.1586 2.21345 22.1585 2.2145 22.1584 2.2172L22.1569 2.25041C22.1556 2.28346 22.1539 2.3384 22.1528 2.41411C22.1507 2.56555 22.1516 2.79982 22.1648 3.10774C22.1911 3.72384 22.2666 4.63301 22.4661 5.76236C22.8649 8.02086 23.7581 11.1542 25.7405 14.5885C27.7229 18.0228 29.9895 20.3623 31.7457 21.8363C32.624 22.5734 33.3735 23.0931 33.8938 23.4237C34.1539 23.5889 34.3563 23.7067 34.4885 23.7805C34.5545 23.8174 34.603 23.8434 34.6322 23.8587L34.6615 23.8739C34.6634 23.8748 34.6645 23.8754 34.6648 23.8756L34.6638 23.8751L34.6625 23.8744C34.6621 23.8742 34.6608 23.8736 33.9964 25.2184C33.3321 26.5633 33.3316 26.563 33.331 26.5628L33.3271 26.5608L33.3201 26.5573L33.3002 26.5472C33.2844 26.5392 33.2634 26.5284 33.2376 26.5148C33.1859 26.4877 33.1145 26.4494 33.0251 26.3994C32.8463 26.2995 32.5952 26.1529 32.285 25.9558C31.6648 25.5618 30.8068 24.9649 29.8171 24.1343C27.8376 22.4729 25.3266 19.8724 23.1423 16.0883C20.9581 12.3044 19.9613 8.82933 19.5118 6.28408C19.2871 5.01156 19.1989 3.97 19.1675 3.23584C19.1518 2.86863 19.1503 2.57789 19.1531 2.3731C19.1545 2.27069 19.157 2.18971 19.1593 2.13136C19.1604 2.10219 19.1616 2.07866 19.1625 2.06093L19.1637 2.0387L19.1642 2.03088L19.1644 2.0278L19.1645 2.02646ZM2.67533 13.4658C2.67579 13.466 2.67628 13.4662 3.34143 12.1218C4.00659 10.7773 4.00712 10.7776 4.00766 10.7778L4.01162 10.7798L4.01863 10.7833L4.03849 10.7934C4.05431 10.8014 4.07524 10.8122 4.10108 10.8258C4.15276 10.853 4.22411 10.8914 4.31348 10.9414C4.49219 11.0414 4.74317 11.1881 5.05326 11.3853C5.67322 11.7796 6.53092 12.3769 7.52033 13.2079C9.49932 14.8701 12.0097 17.4713 14.1939 21.2552C16.378 25.0391 17.3749 28.5132 17.8244 31.0577C18.0491 32.3298 18.1373 33.371 18.1687 34.1048C18.1844 34.4719 18.1859 34.7625 18.1831 34.9673C18.1817 35.0696 18.1792 35.1506 18.1769 35.2089C18.1758 35.2381 18.1746 35.2616 18.1737 35.2793L18.1725 35.3015L18.172 35.3094L18.1717 35.3138C18.1717 35.3144 18.1717 35.315 16.6748 35.2184C15.1779 35.1219 15.1778 35.1224 15.1778 35.1229L15.1777 35.1253L15.1776 35.1266C15.1776 35.1267 15.1777 35.1256 15.1778 35.1229L15.1793 35.0898C15.1806 35.0568 15.1823 35.0019 15.1834 34.9262C15.1855 34.7749 15.1846 34.5408 15.1714 34.233C15.1451 33.6172 15.0696 32.7085 14.8701 31.5796C14.4713 29.322 13.5782 26.1895 11.5957 22.755C9.6132 19.3206 7.34689 16.9801 5.59087 15.5052C4.71279 14.7676 3.9634 14.2475 3.44315 13.9166C3.18313 13.7512 2.98073 13.6333 2.84858 13.5594C2.78252 13.5224 2.73407 13.4965 2.70481 13.4811L2.67533 13.4658C2.67412 13.4651 2.67343 13.4648 2.67285 13.4645L2.67533 13.4658Z"/>
		<path fill-rule="evenodd" clip-rule="evenodd" d="M18.5 34C27.0604 34 34 27.0604 34 18.5C34 9.93959 27.0604 3 18.5 3C9.93959 3 3 9.93959 3 18.5C3 27.0604 9.93959 34 18.5 34ZM18.5 37C28.7173 37 37 28.7173 37 18.5C37 8.28273 28.7173 0 18.5 0C8.28273 0 0 8.28273 0 18.5C0 28.7173 8.28273 37 18.5 37Z"/>
	</symbol>
	<symbol id="basketball" viewBox="0 0 38 38">
		<path fill-rule="evenodd" clip-rule="evenodd" d="M18.5002 0.833344C19.3286 0.833344 20.0002 1.50492 20.0002 2.33334C20.0002 12.3284 11.8286 20.5 1.8335 20.5C1.00507 20.5 0.333496 19.8284 0.333496 19C0.333496 18.1716 1.00507 17.5 1.8335 17.5C10.1717 17.5 17.0002 10.6716 17.0002 2.33334C17.0002 1.50492 17.6717 0.833344 18.5002 0.833344Z"/>
		<path fill-rule="evenodd" clip-rule="evenodd" d="M18.5002 3.83334C10.1238 3.83334 3.3335 10.6237 3.3335 19C3.3335 27.3763 10.1238 34.1667 18.5002 34.1667C26.8765 34.1667 33.6668 27.3763 33.6668 19C33.6668 10.6237 26.8765 3.83334 18.5002 3.83334ZM0.333496 19C0.333496 8.96684 8.46699 0.833344 18.5002 0.833344C28.5333 0.833344 36.6668 8.96684 36.6668 19C36.6668 29.0332 28.5333 37.1667 18.5002 37.1667C8.46699 37.1667 0.333496 29.0332 0.333496 19Z"/>
		<path fill-rule="evenodd" clip-rule="evenodd" d="M13.1336 8.93334C13.6306 8.2706 14.5708 8.13628 15.2336 8.63334L18.5669 11.1333C19.2297 11.6304 19.364 12.5706 18.8669 13.2333C18.3699 13.8961 17.4297 14.0304 16.7669 13.5333L13.4336 11.0333C12.7708 10.5363 12.6365 9.59608 13.1336 8.93334ZM8.43358 13.6333C9.09633 13.1363 10.0365 13.2706 10.5336 13.9333L13.0336 17.2667C13.5306 17.9294 13.3963 18.8696 12.7336 19.3667C12.0708 19.8637 11.1306 19.7294 10.6336 19.0667L8.13358 15.7333C7.63653 15.0706 7.77084 14.1304 8.43358 13.6333ZM26.8229 19.5413C29.3247 18.2378 32.1635 17.5 35.1669 17.5C35.9953 17.5 36.6669 18.1716 36.6669 19C36.6669 19.8284 35.9953 20.5 35.1669 20.5C32.8392 20.5 30.6292 21.0322 28.6525 21.9807L28.8669 22.2667C29.364 22.9294 29.2297 23.8696 28.5669 24.3667C27.9042 24.8637 26.964 24.7294 26.4669 24.0667L26.0777 23.5477C24.9319 24.4107 23.9109 25.4316 23.0479 26.5774L23.5669 26.9667C24.2297 27.4637 24.364 28.4039 23.8669 29.0667C23.3699 29.7294 22.4297 29.8637 21.7669 29.3667L21.481 29.1522C20.5324 31.1289 20.0003 33.339 20.0003 35.6667C20.0003 36.4951 19.3287 37.1667 18.5003 37.1667C17.6718 37.1667 17.0003 36.4951 17.0003 35.6667C17.0003 32.6633 17.7381 29.8245 19.0415 27.3226L18.4336 26.8667C17.7708 26.3696 17.6365 25.4294 18.1336 24.7667C18.6306 24.1039 19.5708 23.9696 20.2336 24.4667L20.6478 24.7773C21.6814 23.4043 22.9046 22.1812 24.2776 21.1475L23.9669 20.7333C23.4699 20.0706 23.6042 19.1304 24.2669 18.6333C24.9297 18.1363 25.8699 18.2706 26.3669 18.9333L26.8229 19.5413Z"/>
	</symbol>
	<symbol id="handball" viewBox="0 0 34 34">
		<path d="M17 0.125C13.6624 0.125 10.3998 1.1147 7.62476 2.96895C4.84968 4.8232 2.68677 7.45871 1.40954 10.5422C0.132312 13.6257 -0.20187 17.0187 0.449256 20.2921C1.10038 23.5656 2.70757 26.5724 5.06758 28.9324C7.42759 31.2924 10.4344 32.8996 13.7079 33.5508C16.9813 34.2019 20.3743 33.8677 23.4578 32.5905C26.5413 31.3132 29.1768 29.1503 31.0311 26.3752C32.8853 23.6002 33.875 20.3376 33.875 17C33.87 12.526 32.0906 8.23666 28.927 5.07305C25.7634 1.90945 21.474 0.129963 17 0.125ZM28.2313 23.7844H24.4813L22.9531 21.6875L24.7188 16.5406L27.1797 15.75L30.0859 17.9781C29.9354 20.0329 29.2998 22.0228 28.2313 23.7844ZM3.91407 17.9703L6.82032 15.75L9.28126 16.5484L11.0469 21.6875L9.52345 23.7844H5.77345C4.70209 22.0209 4.06481 20.0282 3.91407 17.9703ZM14.4766 20.125L12.9859 15.7859L17 13.025L21.0141 15.7859L19.5234 20.125H14.4766ZM27.0797 8.60469L26.0203 12.175L23.55 12.9781L18.875 9.76406V7.22813L22.1906 4.94844C24.0842 5.76749 25.7588 7.01987 27.0797 8.60469ZM11.8094 4.94844L15.125 7.22813V9.76406L10.45 12.9781L7.97969 12.175L6.92032 8.60469C8.24118 7.01987 9.91585 5.76749 11.8094 4.94844ZM13.9313 29.7594L12.5844 25.9516L14.0922 23.875H19.9078L21.4156 25.9516L20.0688 29.7594C18.052 30.2468 15.9481 30.2468 13.9313 29.7594Z"/>
	</symbol>
	<symbol id="baseball" viewBox="0 0 37 38">
		<path fill-rule="evenodd" clip-rule="evenodd" d="M18.4997 0.833252C19.3281 0.833252 19.9997 1.50482 19.9997 2.33325C19.9997 12.3283 11.8281 20.4999 1.83301 20.4999C1.00458 20.4999 0.333008 19.8283 0.333008 18.9999C0.333008 18.1715 1.00458 17.4999 1.83301 17.4999C10.1712 17.4999 16.9997 10.6715 16.9997 2.33325C16.9997 1.50482 17.6712 0.833252 18.4997 0.833252Z"/>
		<path fill-rule="evenodd" clip-rule="evenodd" d="M18.4997 3.83325C10.1234 3.83325 3.33301 10.6236 3.33301 18.9999C3.33301 27.3762 10.1234 34.1666 18.4997 34.1666C26.876 34.1666 33.6663 27.3762 33.6663 18.9999C33.6663 10.6236 26.876 3.83325 18.4997 3.83325ZM0.333008 18.9999C0.333008 8.96675 8.4665 0.833252 18.4997 0.833252C28.5328 0.833252 36.6663 8.96675 36.6663 18.9999C36.6663 29.0331 28.5328 37.1666 18.4997 37.1666C8.4665 37.1666 0.333008 29.0331 0.333008 18.9999Z"/>
		<path fill-rule="evenodd" clip-rule="evenodd" d="M13.1331 8.93334C13.6302 8.2706 14.5704 8.13628 15.2331 8.63334L18.5664 11.1333C19.2292 11.6304 19.3635 12.5706 18.8664 13.2333C18.3694 13.8961 17.4292 14.0304 16.7664 13.5333L13.4331 11.0333C12.7704 10.5363 12.636 9.59608 13.1331 8.93334ZM8.4331 13.6333C9.09584 13.1363 10.036 13.2706 10.5331 13.9333L13.0331 17.2667C13.5302 17.9294 13.3958 18.8696 12.7331 19.3667C12.0704 19.8637 11.1302 19.7294 10.6331 19.0667L8.1331 15.7333C7.63604 15.0706 7.77035 14.1304 8.4331 13.6333ZM26.8224 19.5413C29.3243 18.2378 32.163 17.5 35.1664 17.5C35.9949 17.5 36.6664 18.1716 36.6664 19C36.6664 19.8284 35.9949 20.5 35.1664 20.5C32.8387 20.5 30.6287 21.0322 28.652 21.9807L28.8664 22.2667C29.3635 22.9294 29.2292 23.8696 28.5664 24.3667C27.9037 24.8637 26.9635 24.7294 26.4664 24.0667L26.0772 23.5477C24.9314 24.4107 23.9104 25.4316 23.0474 26.5774L23.5664 26.9667C24.2292 27.4637 24.3635 28.4039 23.8664 29.0667C23.3694 29.7294 22.4292 29.8637 21.7664 29.3667L21.4805 29.1522C20.5319 31.1289 19.9998 33.339 19.9998 35.6667C19.9998 36.4951 19.3282 37.1667 18.4998 37.1667C17.6713 37.1667 16.9998 36.4951 16.9998 35.6667C16.9998 32.6633 17.7376 29.8245 19.041 27.3226L18.4331 26.8667C17.7704 26.3696 17.636 25.4294 18.1331 24.7667C18.6302 24.1039 19.5704 23.9696 20.2331 24.4667L20.6473 24.7773C21.6809 23.4043 22.9041 22.1812 24.2771 21.1475L23.9664 20.7333C23.4694 20.0706 23.6037 19.1304 24.2664 18.6333C24.9292 18.1363 25.8694 18.2706 26.3664 18.9333L26.8224 19.5413Z"/>
	</symbol>
	<symbol id="rugby" viewBox="0 0 33 34">		
		<path fill-rule="evenodd" clip-rule="evenodd" d="M25.4887 3.62613C24.4661 3.54782 23.335 3.49708 22.142 3.50046L30 11.3584C30.0058 10.2439 29.9639 9.12911 29.8741 8.01717L29.8734 8.00804L29.8728 7.99891C29.7952 6.86498 29.3096 5.79749 28.506 4.9938C27.7023 4.19012 26.6348 3.7046 25.5009 3.62701L25.4887 3.62618L25.4887 3.62613ZM29.7668 15.3679L18.1319 3.73298C14.1884 4.20224 10.3075 5.45512 7.63192 8.13067C4.95354 10.809 3.70185 14.6888 3.23273 18.6322L14.8676 30.267C18.8109 29.7979 22.6907 28.5462 25.3691 25.8678C28.0447 23.1923 29.2975 19.3113 29.7668 15.3679ZM10.8575 30.4995L2.99956 22.6416C2.99372 23.7561 3.03567 24.8709 3.1254 25.9828L3.12614 25.992L3.12676 26.0011C3.20435 27.135 3.68987 28.2025 4.49356 29.0062C5.29724 29.8099 6.36473 30.2954 7.49866 30.373L7.5108 30.3738L7.51079 30.3739C8.53344 30.4522 9.66455 30.5029 10.8575 30.4995ZM25.712 0.634442C23.6538 0.477089 21.1518 0.421824 18.5422 0.671844L18.5418 0.671883C14.072 1.10134 9.06156 2.45839 5.5106 6.00935C1.95665 9.5633 0.601097 14.5723 0.171637 19.042L0.171617 19.042L0.1709 19.0499C-0.0453613 21.4331 -0.0575648 23.8303 0.13442 26.2155C0.263562 28.069 1.05826 29.8136 2.37224 31.1275C3.68697 32.4423 5.43277 33.2371 7.2875 33.3656C9.34569 33.5229 11.8477 33.5782 14.4573 33.3282L14.4577 33.3281C18.9275 32.8987 23.9365 31.5431 27.4904 27.9892C31.0414 24.4382 32.3984 19.4278 32.8279 14.958L32.8279 14.958L32.8286 14.9501C33.0449 12.567 33.0571 10.1698 32.8651 7.78461C32.736 5.93105 31.9413 4.18648 30.6273 2.87248C29.3125 1.55774 27.5667 0.76289 25.712 0.634442ZM16.1486 10.9743C16.7344 10.3886 17.6841 10.3886 18.2699 10.9743L19.337 12.0414L20.4041 10.9743C20.9899 10.3886 21.9396 10.3886 22.5254 10.9743C23.1112 11.5601 23.1112 12.5099 22.5254 13.0957L21.4583 14.1628L22.5254 15.2298C23.1112 15.8156 23.1112 16.7654 22.5254 17.3512C21.9396 17.937 20.9899 17.937 20.4041 17.3512L19.337 16.2841L18.6211 17L19.6874 18.0663C20.2732 18.6521 20.2732 19.6019 19.6874 20.1877C19.1016 20.7735 18.1519 20.7735 17.5661 20.1877L16.4998 19.1213L15.7838 19.8373L16.8509 20.9043C17.4367 21.4901 17.4367 22.4399 16.8509 23.0257C16.2651 23.6115 15.3154 23.6115 14.7296 23.0257L13.6625 21.9586L12.5954 23.0257C12.0096 23.6115 11.0599 23.6115 10.4741 23.0257C9.88831 22.4399 9.88831 21.4901 10.4741 20.9043L11.5412 19.8373L10.4741 18.7702C9.88831 18.1844 9.88831 17.2346 10.4741 16.6488C11.0599 16.0631 12.0096 16.0631 12.5954 16.6488L13.6625 17.7159L14.3784 17L13.3121 15.9337C12.7263 15.3479 12.7263 14.3981 13.3121 13.8123C13.8979 13.2266 14.8476 13.2266 15.4334 13.8123L16.4998 14.8787L17.2157 14.1628L16.1486 13.0957C15.5628 12.5099 15.5628 11.5601 16.1486 10.9743Z"/>
	</symbol>
	<symbol id="badminton" viewBox="0 0 34 38">
		<path fill-rule="evenodd" clip-rule="evenodd" d="M11.9821 6.14016L16.5267 25.8333H17.4735L22.0181 6.14016C19.2718 3.06383 14.7285 3.06383 11.9821 6.14016ZM24.8447 7.23338L20.5524 25.8333H22.0869C22.2192 25.4573 22.4079 25.0651 22.6234 24.6173C22.6407 24.5813 22.6582 24.5449 22.6759 24.5081C22.6761 24.5078 22.6762 24.5074 22.6764 24.5071L30.0205 9.16566C30.151 8.89308 30.2513 8.68326 30.3321 8.50002C30.4125 8.31739 30.4564 8.19899 30.4804 8.11664C30.489 8.08709 30.4939 8.06596 30.4967 8.05198C30.4939 8.04959 30.4905 8.04676 30.4864 8.04348C30.4516 8.01568 30.3863 7.97017 30.2586 7.89657C30.1288 7.82176 29.9739 7.74003 29.758 7.62651M24.8149 28.2987C25.0345 28.0378 25.1668 27.701 25.1668 27.3333C25.1668 27.0805 25.1042 26.8422 24.9937 26.6332C25.0648 26.4693 25.1817 26.22 25.3805 25.8063L32.7263 10.4612C32.7382 10.4364 32.7502 10.4115 32.7621 10.3865C32.9862 9.91916 33.2247 9.42164 33.3603 8.95711C33.5269 8.38616 33.5715 7.77232 33.3434 7.10331C32.9332 5.89656 32.0063 5.41453 31.2882 5.04116C31.2423 5.01729 31.1973 4.99387 31.1533 4.97073L31.1522 4.97016C29.3273 4.01233 26.8817 3.43164 24.3356 4.23159C20.388 -0.300016 13.612 -0.299973 9.66448 4.23171C7.15405 3.4431 4.74295 3.99601 2.926 4.93125C2.89888 4.94353 2.87196 4.95669 2.84526 4.97073C2.80126 4.99387 2.75621 5.01729 2.71032 5.04116C1.99228 5.41453 1.06531 5.89656 0.655121 7.10332C0.42711 7.77228 0.471639 8.38575 0.638374 8.95672C0.773434 9.41922 1.01089 9.91525 1.23406 10.3814C1.24671 10.4078 1.25931 10.4342 1.27184 10.4604L8.62019 25.8037C8.81756 26.2165 8.9347 26.4677 9.00625 26.6337C8.89592 26.8426 8.83344 27.0807 8.83344 27.3333C8.83344 27.701 8.96574 28.0378 9.18533 28.2987C9.19657 28.685 9.20776 29.1479 9.22113 29.7013L9.22221 29.7458C9.2222 29.7457 9.22221 29.746 9.22221 29.7458C9.26791 31.6556 9.91015 33.5258 11.2571 34.9303C12.621 36.3526 14.5827 37.1667 17.0001 37.1667C19.4172 37.1667 21.3793 36.3532 22.7436 34.9312C24.0911 33.5266 24.7334 31.6563 24.778 29.745L24.7791 29.7009C24.7925 29.1477 24.8037 28.6849 24.8149 28.2987ZM21.7995 28.8333C21.7935 29.0702 21.7873 29.3255 21.7807 29.5996L21.7789 29.675C21.7485 30.9754 21.3183 32.0834 20.5787 32.8543C19.856 33.6076 18.7163 34.1667 17.0001 34.1667C15.2842 34.1667 14.145 33.6074 13.4223 32.8538C12.6827 32.0826 12.2524 30.9742 12.2214 29.6742L12.2195 29.5994C12.2129 29.3253 12.2068 29.0702 12.2008 28.8333H15.3007C15.3216 28.8338 15.3425 28.8338 15.3636 28.8333H18.6366C18.6577 28.8338 18.6787 28.8338 18.6996 28.8333H21.7995ZM13.4479 25.8333L9.1556 7.2335C7.41575 6.54023 5.66889 6.87806 4.24318 7.62767C4.2187 7.64054 4.19403 7.65267 4.16919 7.66406C3.98977 7.75854 3.85501 7.83027 3.73996 7.89657C3.61223 7.97017 3.54697 8.01568 3.51219 8.04348C3.50813 8.04673 3.50473 8.04954 3.50193 8.05192C3.50472 8.06583 3.50961 8.0867 3.5181 8.11578C3.54214 8.19812 3.58602 8.31655 3.66658 8.49951C3.7474 8.68304 3.84765 8.89288 3.97824 9.16601C3.97829 9.1661 3.9782 9.16591 3.97824 9.16601L11.3263 24.5087C11.3417 24.5409 11.3573 24.5735 11.3724 24.6051C11.5913 25.0625 11.7801 25.4569 11.9127 25.8333H13.4479ZM24.8447 7.23338C26.5831 6.54033 28.3316 6.8779 29.758 7.62651Z"/>
		<path fill-rule="evenodd" clip-rule="evenodd" d="M5.99643 17.8852C6.61212 17.3309 7.56056 17.3807 8.11483 17.9964C8.89105 18.8587 9.6748 19.1663 10.3333 19.1663C10.9919 19.1663 11.7756 18.8587 12.5519 17.9964C12.8363 17.6804 13.2415 17.5 13.6667 17.5C14.0918 17.5 14.497 17.6804 14.7815 17.9964C15.5577 18.8587 16.3415 19.1663 17 19.1663C17.6586 19.1663 18.4423 18.8587 19.2185 17.9964C19.503 17.6804 19.9082 17.5 20.3333 17.5C20.7585 17.5 21.1637 17.6804 21.4482 17.9964C22.2244 18.8587 23.0081 19.1663 23.6667 19.1663C24.3252 19.1663 25.109 18.8587 25.8852 17.9964C26.4395 17.3807 27.3879 17.3309 28.0036 17.8852C28.6193 18.4395 28.6691 19.3879 28.1148 20.0036C26.8911 21.363 25.3415 22.1663 23.6667 22.1663C22.4667 22.1663 21.331 21.7539 20.3333 21.0201C19.3357 21.7539 18.2 22.1663 17 22.1663C15.8 22.1663 14.6643 21.7539 13.6667 21.0201C12.669 21.7539 11.5333 22.1663 10.3333 22.1663C8.65856 22.1663 7.10898 21.363 5.8852 20.0036C5.33093 19.3879 5.38073 18.4395 5.99643 17.8852Z"/>
	</symbol>
	<symbol id="esports" viewBox="0 0 36 32">
		<path d="M4.76811 32C3.26986 32 2.10945 31.3234 1.28689 29.9703C0.464318 28.6171 0.155855 26.9699 0.361497 25.0286L2.21227 7.88571C2.47667 5.6 3.26281 3.71428 4.57069 2.22857C5.87857 0.742857 7.41325 0 9.17472 0H26.6249C28.3875 0 29.9228 0.742857 31.2307 2.22857C32.5386 3.71428 33.3241 5.6 33.5873 7.88571L35.4381 25.0286C35.6438 26.9714 35.3353 28.6194 34.5127 29.9726C33.6902 31.3257 32.5298 32.0015 31.0315 32C30.4146 32 29.8417 31.8575 29.3129 31.5726C28.7841 31.2876 28.2994 30.8587 27.8587 30.2857L23.8928 25.1428H11.9068L7.94087 30.2857C7.50021 30.8571 7.01548 31.2861 6.48669 31.5726C5.95789 31.859 5.38503 32.0015 4.76811 32ZM5.47316 27.0857L10.4967 20.5714H25.3029L30.3264 27.0857C30.3852 27.1619 30.6202 27.2762 31.0315 27.4286C31.3547 27.4286 31.612 27.3051 31.8035 27.0583C31.9951 26.8114 32.0609 26.4777 32.001 26.0571L30.062 8.45714C29.9445 7.35238 29.5626 6.42895 28.9163 5.68685C28.27 4.94476 27.5062 4.57295 26.6249 4.57143H9.17472C8.2934 4.57143 7.52958 4.94324 6.88328 5.68685C6.23698 6.43047 5.85507 7.3539 5.73756 8.45714L3.79865 26.0571C3.7399 26.4762 3.80629 26.8099 3.99783 27.0583C4.18937 27.3067 4.44613 27.4301 4.76811 27.4286C4.82686 27.4286 5.06188 27.3143 5.47316 27.0857ZM26.713 18.2857C27.2124 18.2857 27.6314 18.067 27.9698 17.6297C28.3082 17.1924 28.4768 16.6491 28.4757 16C28.4745 15.3509 28.3053 14.8084 27.968 14.3726C27.6308 13.9368 27.2124 13.7173 26.713 13.7143C26.2136 13.7112 25.7953 13.9307 25.458 14.3726C25.1208 14.8145 24.9516 15.3569 24.9504 16C24.9492 16.643 25.1184 17.1863 25.458 17.6297C25.7976 18.0731 26.216 18.2918 26.713 18.2857ZM23.1877 11.4286C23.6872 11.4286 24.1061 11.2091 24.4445 10.7703C24.7829 10.3314 24.9516 9.78895 24.9504 9.14285C24.9492 8.49676 24.78 7.95428 24.4427 7.51543C24.1055 7.07657 23.6872 6.85714 23.1877 6.85714C22.6883 6.85714 22.27 7.07657 21.9327 7.51543C21.5955 7.95428 21.4263 8.49676 21.4251 9.14285C21.4239 9.78895 21.5931 10.3322 21.9327 10.7726C22.2723 11.2129 22.6907 11.4316 23.1877 11.4286ZM10.4086 18.2857H13.0525V14.2857H16.1372V10.8571H13.0525V6.85714H10.4086V10.8571H7.32394V14.2857H10.4086V18.2857Z"/>
	</symbol>
</svg>