<svg width="32" height="32" viewBox="0 0 32 32" fill="none" xmlns="http://www.w3.org/2000/svg">
<path d="M32 5C32 2.23858 29.7614 0 27 0H5C2.23858 0 0 2.23858 0 5V27C0 29.7614 2.23858 32 5 32H27C29.7614 32 32 29.7614 32 27V5Z" fill="#9146FF"/>
<path d="M12.0017 9.4281L9.14453 12.2852V22.571H12.5731V25.4281L15.4302 22.571H17.716L22.8588 17.4281V9.4281H12.0017ZM21.716 16.8567L19.4302 19.1424H17.1445L15.1445 21.1424V19.1424H12.5731V10.571H21.716V16.8567Z" fill="white"/>
<path d="M20.0017 12.571H18.8588V15.9995H20.0017V12.571Z" fill="white"/>
<path d="M16.8588 12.571H15.716V15.9995H16.8588V12.571Z" fill="white"/>
</svg>
